<svg id="id-ujduaf6" width="100%" xmlns="http://www.w3.org/2000/svg" style="max-width: 1703.0650634765625px;" viewBox="-8 -8 1703.0650634765625 802.6693115234375" role="graphics-document document" aria-roledescription="flowchart-v2"><rect x="0" y="0" width="100%" height="100%" fill="#ffffff"/><style>#id-ujduaf6{font-family:"trebuchet ms",verdana,arial,sans-serif;font-size:16px;fill:#333;}#id-ujduaf6 .error-icon{fill:hsl(220.5882352941, 100%, 98.3333333333%);}#id-ujduaf6 .error-text{fill:rgb(8.5000000002, 5.7500000001, 0);stroke:rgb(8.5000000002, 5.7500000001, 0);}#id-ujduaf6 .edge-thickness-normal{stroke-width:2px;}#id-ujduaf6 .edge-thickness-thick{stroke-width:3.5px;}#id-ujduaf6 .edge-pattern-solid{stroke-dasharray:0;}#id-ujduaf6 .edge-pattern-dashed{stroke-dasharray:3;}#id-ujduaf6 .edge-pattern-dotted{stroke-dasharray:2;}#id-ujduaf6 .marker{fill:#000000;stroke:#000000;}#id-ujduaf6 .marker.cross{stroke:#000000;}#id-ujduaf6 svg{font-family:"trebuchet ms",verdana,arial,sans-serif;font-size:16px;}#id-ujduaf6 .label{font-family:"trebuchet ms",verdana,arial,sans-serif;color:#333;}#id-ujduaf6 .cluster-label text{fill:rgb(8.5000000002, 5.7500000001, 0);}#id-ujduaf6 .cluster-label span,#id-ujduaf6 p{color:rgb(8.5000000002, 5.7500000001, 0);}#id-ujduaf6 .label text,#id-ujduaf6 span,#id-ujduaf6 p{fill:#333;color:#333;}#id-ujduaf6 .node rect,#id-ujduaf6 .node circle,#id-ujduaf6 .node ellipse,#id-ujduaf6 .node polygon,#id-ujduaf6 .node path{fill:#fff4dd;stroke:hsl(40.5882352941, 60%, 83.3333333333%);stroke-width:1px;}#id-ujduaf6 .flowchart-label text{text-anchor:middle;}#id-ujduaf6 .node .katex path{fill:#000;stroke:#000;stroke-width:1px;}#id-ujduaf6 .node .label{text-align:center;}#id-ujduaf6 .node.clickable{cursor:pointer;}#id-ujduaf6 .arrowheadPath{fill:#000000;}#id-ujduaf6 .edgePath .path{stroke:#000000;stroke-width:2.0px;}#id-ujduaf6 .flowchart-link{stroke:#000000;fill:none;}#id-ujduaf6 .edgeLabel{background-color:hsl(-79.4117647059, 100%, 93.3333333333%);text-align:center;}#id-ujduaf6 .edgeLabel rect{opacity:0.5;background-color:hsl(-79.4117647059, 100%, 93.3333333333%);fill:hsl(-79.4117647059, 100%, 93.3333333333%);}#id-ujduaf6 .labelBkg{background-color:rgba(243.9999999999, 220.9999999998, 255, 0.5);}#id-ujduaf6 .cluster rect{fill:hsl(220.5882352941, 100%, 98.3333333333%);stroke:hsl(220.5882352941, 60%, 88.3333333333%);stroke-width:1px;}#id-ujduaf6 .cluster text{fill:rgb(8.5000000002, 5.7500000001, 0);}#id-ujduaf6 .cluster span,#id-ujduaf6 p{color:rgb(8.5000000002, 5.7500000001, 0);}#id-ujduaf6 div.mermaidTooltip{position:absolute;text-align:center;max-width:200px;padding:2px;font-family:"trebuchet ms",verdana,arial,sans-serif;font-size:12px;background:hsl(220.5882352941, 100%, 98.3333333333%);border:1px solid hsl(220.5882352941, 60%, 88.3333333333%);border-radius:2px;pointer-events:none;z-index:100;}#id-ujduaf6 .flowchartTitleText{text-anchor:middle;font-size:18px;fill:#333;}#id-ujduaf6 :root{--mermaid-font-family:"trebuchet ms",verdana,arial,sans-serif;}</style><g><marker id="id-ujduaf6_flowchart-pointEnd" class="marker flowchart" viewBox="0 0 10 10" refX="6" refY="5" markerUnits="userSpaceOnUse" markerWidth="12" markerHeight="12" orient="auto"><path d="M 0 0 L 10 5 L 0 10 z" class="arrowMarkerPath" style="stroke-width: 1; stroke-dasharray: 1, 0;"></path></marker><marker id="id-ujduaf6_flowchart-pointStart" class="marker flowchart" viewBox="0 0 10 10" refX="4.5" refY="5" markerUnits="userSpaceOnUse" markerWidth="12" markerHeight="12" orient="auto"><path d="M 0 5 L 10 10 L 10 0 z" class="arrowMarkerPath" style="stroke-width: 1; stroke-dasharray: 1, 0;"></path></marker><marker id="id-ujduaf6_flowchart-circleEnd" class="marker flowchart" viewBox="0 0 10 10" refX="11" refY="5" markerUnits="userSpaceOnUse" markerWidth="11" markerHeight="11" orient="auto"><circle cx="5" cy="5" r="5" class="arrowMarkerPath" style="stroke-width: 1; stroke-dasharray: 1, 0;"></circle></marker><marker id="id-ujduaf6_flowchart-circleStart" class="marker flowchart" viewBox="0 0 10 10" refX="-1" refY="5" markerUnits="userSpaceOnUse" markerWidth="11" markerHeight="11" orient="auto"><circle cx="5" cy="5" r="5" class="arrowMarkerPath" style="stroke-width: 1; stroke-dasharray: 1, 0;"></circle></marker><marker id="id-ujduaf6_flowchart-crossEnd" class="marker cross flowchart" viewBox="0 0 11 11" refX="12" refY="5.2" markerUnits="userSpaceOnUse" markerWidth="11" markerHeight="11" orient="auto"><path d="M 1,1 l 9,9 M 10,1 l -9,9" class="arrowMarkerPath" style="stroke-width: 2; stroke-dasharray: 1, 0;"></path></marker><marker id="id-ujduaf6_flowchart-crossStart" class="marker cross flowchart" viewBox="0 0 11 11" refX="-1" refY="5.2" markerUnits="userSpaceOnUse" markerWidth="11" markerHeight="11" orient="auto"><path d="M 1,1 l 9,9 M 10,1 l -9,9" class="arrowMarkerPath" style="stroke-width: 2; stroke-dasharray: 1, 0;"></path></marker><g class="root"><g class="clusters"><g class="cluster default flowchart-label" id="OpenAI"><rect style="" rx="0" ry="0" x="1284.4557495117188" y="56.32292366027832" width="402.609375" height="187"></rect><g class="cluster-label" transform="translate(1460.2330932617188, 56.32292366027832)"><foreignObject width="51.0546875" height="18.5"><div xmlns="http://www.w3.org/1999/xhtml" style="display: inline-block; white-space: nowrap;"><span class="nodeLabel">OpenAI</span></div></foreignObject></g></g><g class="cluster default flowchart-label" id="Data"><rect style="" rx="0" ry="0" x="1284.4557495117188" y="263.3229236602783" width="402.609375" height="523.3463916778564"></rect><g class="cluster-label" transform="translate(1447.1940307617188, 263.3229236602783)"><foreignObject width="77.1328125" height="18.5"><div xmlns="http://www.w3.org/1999/xhtml" style="display: inline-block; white-space: nowrap;"><span class="nodeLabel">Data Layer</span></div></foreignObject></g></g><g class="cluster default flowchart-label" id="Server"><rect style="" rx="0" ry="0" x="869.0625" y="47.07292366027832" width="365.39324951171875" height="738.180721282959"></rect><g class="cluster-label" transform="translate(1002.6458435058594, 47.07292366027832)"><foreignObject width="98.2265625" height="18.5"><div xmlns="http://www.w3.org/1999/xhtml" style="display: inline-block; white-space: nowrap;"><span class="nodeLabel">Node/Express</span></div></foreignObject></g></g><g class="cluster default flowchart-label" id="Browser"><rect style="" rx="0" ry="0" x="0" y="0" width="819.0625" height="306.75"></rect><g class="cluster-label" transform="translate(380.9375, 0)"><foreignObject width="57.1875" height="18.5"><div xmlns="http://www.w3.org/1999/xhtml" style="display: inline-block; white-space: nowrap;"><span class="nodeLabel">Browser</span></div></foreignObject></g></g></g><g class="edgePaths"><path d="M249.206,199.125L252.49,199.125C255.773,199.125,262.34,199.125,268.906,199.125C275.473,199.125,282.04,199.125,285.323,199.125L288.606,199.125" id="L-UI-TOOLS-0" class=" edge-thickness-normal edge-pattern-solid flowchart-link LS-UI LE-TOOLS" style="fill:none;" marker-start="url(#id-ujduaf6_flowchart-pointStart)" marker-end="url(#id-ujduaf6_flowchart-pointEnd)"></path><path d="M485.831,199.125L489.115,199.125C492.398,199.125,498.965,199.125,505.531,199.125C512.098,199.125,518.665,199.125,521.948,199.125L525.231,199.125" id="L-TOOLS-RTC-0" class=" edge-thickness-normal edge-pattern-solid flowchart-link LS-TOOLS LE-RTC" style="fill:none;" marker-start="url(#id-ujduaf6_flowchart-pointStart)" marker-end="url(#id-ujduaf6_flowchart-pointEnd)"></path><path d="M733.092,225.125L747.421,230.387C761.749,235.649,790.406,246.174,808.901,251.436C827.396,256.698,835.729,256.698,844.063,256.698C852.396,256.698,860.729,256.698,874.186,256.774C887.644,256.85,906.225,257.002,915.515,257.078L924.806,257.155" id="L-RTC-TOKEN-0" class=" edge-thickness-normal edge-pattern-solid flowchart-link LS-RTC LE-TOKEN" style="fill:none;" marker-end="url(#id-ujduaf6_flowchart-pointEnd)"></path><path d="M707.061,173.125L725.728,162.283C744.395,151.441,781.729,129.757,804.562,118.915C827.396,108.073,835.729,108.073,844.063,108.073C852.396,108.073,860.729,108.073,884.031,108.153C907.334,108.232,945.605,108.392,964.74,108.471L983.876,108.551" id="L-RTC-SDP-0" class=" edge-thickness-normal edge-pattern-solid flowchart-link LS-RTC LE-SDP" style="fill:none;" marker-end="url(#id-ujduaf6_flowchart-pointEnd)"></path><path d="M1119.193,283.198L1138.403,290.609C1157.614,298.021,1196.035,312.843,1219.412,320.254C1242.789,327.666,1251.122,327.666,1259.456,327.666C1267.789,327.666,1276.122,327.666,1283.818,331.05C1291.514,334.434,1298.572,341.203,1302.101,344.587L1305.63,347.972" id="L-TOKEN-PG-0" class=" edge-thickness-normal edge-pattern-solid flowchart-link LS-TOKEN LE-PG" style="fill:none;" marker-end="url(#id-ujduaf6_flowchart-pointEnd)"></path><path d="M1079.836,539.758L1105.606,515.3C1131.376,490.842,1182.916,441.925,1212.852,417.467C1242.789,393.008,1251.122,393.008,1259.456,393.008C1267.789,393.008,1276.122,393.008,1283.577,392.667C1291.032,392.325,1297.608,391.642,1300.896,391.3L1304.184,390.959" id="L-EXEC-PG-0" class=" edge-thickness-normal edge-pattern-solid flowchart-link LS-EXEC LE-PG" style="fill:none;" marker-end="url(#id-ujduaf6_flowchart-pointEnd)"></path><path d="M1155.433,558.624L1168.603,557.625C1181.774,556.625,1208.115,554.625,1225.452,553.626C1242.789,552.626,1251.122,552.626,1259.456,552.626C1267.789,552.626,1276.122,552.626,1284.771,552.626C1293.42,552.626,1302.383,552.626,1306.865,552.626L1311.347,552.626" id="L-EXEC-MY-0" class=" edge-thickness-normal edge-pattern-solid flowchart-link LS-EXEC LE-MY" style="fill:none;" marker-end="url(#id-ujduaf6_flowchart-pointEnd)"></path><path d="M1117.353,591.758L1136.87,599.504C1156.387,607.25,1195.421,622.741,1219.105,630.486C1242.789,638.232,1251.122,638.232,1259.456,638.232C1267.789,638.232,1276.122,638.232,1298.486,644.162C1320.85,650.093,1357.245,661.954,1375.442,667.885L1393.639,673.815" id="L-EXEC-RD-0" class=" edge-thickness-normal edge-pattern-solid flowchart-link LS-EXEC LE-RD" style="fill:none;" marker-end="url(#id-ujduaf6_flowchart-pointEnd)"></path><path d="M1120.642,108.551L1139.611,108.471C1158.58,108.391,1196.518,108.232,1219.654,108.153C1242.789,108.073,1251.122,108.073,1259.456,108.073C1267.789,108.073,1276.122,108.073,1296.406,108.073C1316.689,108.073,1348.922,108.073,1365.039,108.073L1381.156,108.073" id="L-SDP-OA-0" class=" edge-thickness-normal edge-pattern-solid flowchart-link LS-SDP LE-OA" style="fill:none;" marker-start="url(#id-ujduaf6_flowchart-pointStart)" marker-end="url(#id-ujduaf6_flowchart-pointEnd)"></path><path d="M1069.236,460.541L1096.773,502.757C1124.309,544.973,1179.383,629.406,1211.086,671.622C1242.789,713.838,1251.122,713.838,1259.456,713.838C1267.789,713.838,1276.122,713.838,1298.444,712.936C1320.765,712.034,1357.075,710.231,1375.23,709.329L1393.385,708.427" id="L-SESS-RD-0" class=" edge-thickness-normal edge-pattern-solid flowchart-link LS-SESS LE-RD" style="fill:none;" marker-end="url(#id-ujduaf6_flowchart-pointEnd)"></path><path d="M1201.425,425.602L1206.93,425.184C1212.435,424.766,1223.446,423.929,1233.117,423.511C1242.789,423.093,1251.122,423.093,1259.456,423.093C1267.789,423.093,1276.122,423.093,1283.829,419.583C1291.535,416.073,1298.613,409.054,1302.153,405.544L1305.692,402.034" id="L-SESS-PG-0" class=" edge-thickness-normal edge-pattern-solid flowchart-link LS-SESS LE-PG" style="fill:none;" marker-end="url(#id-ujduaf6_flowchart-pointEnd)"></path><path d="M1071.85,408.541L1098.951,372.379C1126.052,336.218,1180.254,263.896,1211.521,227.734C1242.789,191.573,1251.122,191.573,1259.456,191.573C1267.789,191.573,1276.122,191.573,1298.214,191.573C1320.305,191.573,1356.154,191.573,1374.079,191.573L1392.003,191.573" id="L-SESS-SUM-0" class=" edge-thickness-normal edge-pattern-solid flowchart-link LS-SESS LE-SUM" style="fill:none;" marker-end="url(#id-ujduaf6_flowchart-pointEnd)"></path></g><g class="edgeLabels"><g class="edgeLabel"><g class="label" transform="translate(0, 0)"><foreignObject width="0" height="0"><div xmlns="http://www.w3.org/1999/xhtml" style="display: inline-block; white-space: nowrap;"><span class="edgeLabel"></span></div></foreignObject></g></g><g class="edgeLabel"><g class="label" transform="translate(0, 0)"><foreignObject width="0" height="0"><div xmlns="http://www.w3.org/1999/xhtml" style="display: inline-block; white-space: nowrap;"><span class="edgeLabel"></span></div></foreignObject></g></g><g class="edgeLabel"><g class="label" transform="translate(0, 0)"><foreignObject width="0" height="0"><div xmlns="http://www.w3.org/1999/xhtml" style="display: inline-block; white-space: nowrap;"><span class="edgeLabel"></span></div></foreignObject></g></g><g class="edgeLabel"><g class="label" transform="translate(0, 0)"><foreignObject width="0" height="0"><div xmlns="http://www.w3.org/1999/xhtml" style="display: inline-block; white-space: nowrap;"><span class="edgeLabel"></span></div></foreignObject></g></g><g class="edgeLabel"><g class="label" transform="translate(0, 0)"><foreignObject width="0" height="0"><div xmlns="http://www.w3.org/1999/xhtml" style="display: inline-block; white-space: nowrap;"><span class="edgeLabel"></span></div></foreignObject></g></g><g class="edgeLabel"><g class="label" transform="translate(0, 0)"><foreignObject width="0" height="0"><div xmlns="http://www.w3.org/1999/xhtml" style="display: inline-block; white-space: nowrap;"><span class="edgeLabel"></span></div></foreignObject></g></g><g class="edgeLabel"><g class="label" transform="translate(0, 0)"><foreignObject width="0" height="0"><div xmlns="http://www.w3.org/1999/xhtml" style="display: inline-block; white-space: nowrap;"><span class="edgeLabel"></span></div></foreignObject></g></g><g class="edgeLabel"><g class="label" transform="translate(0, 0)"><foreignObject width="0" height="0"><div xmlns="http://www.w3.org/1999/xhtml" style="display: inline-block; white-space: nowrap;"><span class="edgeLabel"></span></div></foreignObject></g></g><g class="edgeLabel"><g class="label" transform="translate(0, 0)"><foreignObject width="0" height="0"><div xmlns="http://www.w3.org/1999/xhtml" style="display: inline-block; white-space: nowrap;"><span class="edgeLabel"></span></div></foreignObject></g></g><g class="edgeLabel"><g class="label" transform="translate(0, 0)"><foreignObject width="0" height="0"><div xmlns="http://www.w3.org/1999/xhtml" style="display: inline-block; white-space: nowrap;"><span class="edgeLabel"></span></div></foreignObject></g></g><g class="edgeLabel"><g class="label" transform="translate(0, 0)"><foreignObject width="0" height="0"><div xmlns="http://www.w3.org/1999/xhtml" style="display: inline-block; white-space: nowrap;"><span class="edgeLabel"></span></div></foreignObject></g></g><g class="edgeLabel"><g class="label" transform="translate(0, 0)"><foreignObject width="0" height="0"><div xmlns="http://www.w3.org/1999/xhtml" style="display: inline-block; white-space: nowrap;"><span class="edgeLabel"></span></div></foreignObject></g></g></g><g class="nodes"><g class="node default default flowchart-label" id="flowchart-OA-48" data-node="true" data-id="OA" transform="translate(1485.7604370117188, 108.07292366027832)"><rect style="" rx="16.75" ry="16.75" x="-99.3046875" y="-16.75" width="198.609375" height="33.5"></rect><g class="label" style="" transform="translate(-87.6171875, -9.25)"><rect></rect><foreignObject width="175.234375" height="18.5"><div xmlns="http://www.w3.org/1999/xhtml" style="display: inline-block; white-space: nowrap;"><span class="nodeLabel">Realtime audio and data</span></div></foreignObject></g></g><g class="node default default flowchart-label" id="flowchart-SUM-49" data-node="true" data-id="SUM" transform="translate(1485.7604370117188, 191.57292366027832)"><rect style="" rx="16.75" ry="16.75" x="-88.45703125" y="-16.75" width="176.9140625" height="33.5"></rect><g class="label" style="" transform="translate(-76.76953125, -9.25)"><rect></rect><foreignObject width="153.5390625" height="18.5"><div xmlns="http://www.w3.org/1999/xhtml" style="display: inline-block; white-space: nowrap;"><span class="nodeLabel">Summarization Model</span></div></foreignObject></g></g><g class="node default default flowchart-label" id="flowchart-PG-45" label-offset-y="18.456996106912687" data-node="true" data-id="PG" transform="translate(1485.7604370117188, 372.09274673461914)"><path style="" d="M 0,18.456996106912687 a 176.3046875,18.456996106912687 0,0,0 352.609375 0 a 176.3046875,18.456996106912687 0,0,0 -352.609375 0 l 0,70.45699610691268 a 176.3046875,18.456996106912687 0,0,0 352.609375 0 l 0,-70.45699610691268" transform="translate(-176.3046875,-53.68549416036903)"></path><g class="label" style="" transform="translate(-168.8046875, -18.5)"><rect></rect><foreignObject width="337.609375" height="37"><div xmlns="http://www.w3.org/1999/xhtml" style="display: inline-block; white-space: nowrap;"><span class="nodeLabel">Postgres<br/>chat JSON, summaries, memory, agent settings</span></div></foreignObject></g></g><g class="node default default flowchart-label" id="flowchart-MY-46" label-offset-y="18.253841094226974" data-node="true" data-id="MY" transform="translate(1485.7604370117188, 552.6258735656738)"><path style="" d="M 0,18.253841094226974 a 169.11328125,18.253841094226974 0,0,0 338.2265625 0 a 169.11328125,18.253841094226974 0,0,0 -338.2265625 0 l 0,70.25384109422697 a 169.11328125,18.253841094226974 0,0,0 338.2265625 0 l 0,-70.25384109422697" transform="translate(-169.11328125,-53.380761641340456)"></path><g class="label" style="" transform="translate(-161.61328125, -18.5)"><rect></rect><foreignObject width="323.2265625" height="37"><div xmlns="http://www.w3.org/1999/xhtml" style="display: inline-block; white-space: nowrap;"><span class="nodeLabel">MySQL<br/>users, events, favorites, attendance, quizzes</span></div></foreignObject></g></g><g class="node default default flowchart-label" id="flowchart-RD-47" label-offset-y="14.554226621053456" data-node="true" data-id="RD" transform="translate(1485.7604370117188, 703.8379745483398)"><path style="" d="M 0,14.554226621053456 a 87.08203125,14.554226621053456 0,0,0 174.1640625 0 a 87.08203125,14.554226621053456 0,0,0 -174.1640625 0 l 0,66.55422662105346 a 87.08203125,14.554226621053456 0,0,0 174.1640625 0 l 0,-66.55422662105346" transform="translate(-87.08203125,-47.83133993158019)"></path><g class="label" style="" transform="translate(-79.58203125, -18.5)"><rect></rect><foreignObject width="159.1640625" height="37"><div xmlns="http://www.w3.org/1999/xhtml" style="display: inline-block; white-space: nowrap;"><span class="nodeLabel">Redis<br/>chat tail, last_activity</span></div></foreignObject></g></g><g class="node default default flowchart-label" id="flowchart-TOKEN-41" data-node="true" data-id="TOKEN" transform="translate(1051.7591247558594, 256.6979236602783)"><polygon points="-17.333333333333332,0 226.97395833333334,0 252.97395833333334,-52 8.666666666666666,-52" class="label-container" transform="translate(-117.8203125,26)" style=""></polygon><g class="label" style="" transform="translate(-110.3203125, -18.5)"><rect></rect><foreignObject width="220.640625" height="37"><div xmlns="http://www.w3.org/1999/xhtml" style="display: inline-block; white-space: nowrap;"><span class="nodeLabel">realtime/token<br/>build instructions + mint token</span></div></foreignObject></g></g><g class="node default default flowchart-label" id="flowchart-SDP-42" data-node="true" data-id="SDP" transform="translate(1051.7591247558594, 108.07292366027832)"><polygon points="-17.333333333333332,0 108.83333333333333,0 134.83333333333334,-52 8.666666666666666,-52" class="label-container" transform="translate(-58.75,26)" style=""></polygon><g class="label" style="" transform="translate(-51.25, -18.5)"><rect></rect><foreignObject width="102.5" height="37"><div xmlns="http://www.w3.org/1999/xhtml" style="display: inline-block; white-space: nowrap;"><span class="nodeLabel">realtime/sdp<br/>WebRTC proxy</span></div></foreignObject></g></g><g class="node default default flowchart-label" id="flowchart-EXEC-43" data-node="true" data-id="EXEC" transform="translate(1051.7591247558594, 565.2584171295166)"><polygon points="-17.333333333333332,0 181.88020833333334,0 207.88020833333334,-52 8.666666666666666,-52" class="label-container" transform="translate(-95.2734375,26)" style=""></polygon><g class="label" style="" transform="translate(-87.7734375, -18.5)"><rect></rect><foreignObject width="175.546875" height="37"><div xmlns="http://www.w3.org/1999/xhtml" style="display: inline-block; white-space: nowrap;"><span class="nodeLabel">tools/execute<br/>server tools switchboard</span></div></foreignObject></g></g><g class="node default default flowchart-label" id="flowchart-SESS-44" data-node="true" data-id="SESS" transform="translate(1051.7591247558594, 434.04067039489746)"><polygon points="-17.333333333333332,0 272.0598958333333,0 298.0598958333333,-52 8.666666666666666,-52" class="label-container" transform="translate(-140.36328125,26)" style=""></polygon><g class="label" style="" transform="translate(-132.86328125, -18.5)"><rect></rect><foreignObject width="265.7265625" height="37"><div xmlns="http://www.w3.org/1999/xhtml" style="display: inline-block; white-space: nowrap;"><span class="nodeLabel">sessions/*<br/>heartbeat/finalize + idle summarizer</span></div></foreignObject></g></g><g class="node default default flowchart-label" id="flowchart-UI-37" data-node="true" data-id="UI" transform="translate(134.453125, 199.125)"><rect class="basic label-container" style="" rx="0" ry="0" x="-109.453125" y="-26" width="218.90625" height="52"></rect><g class="label" style="" transform="translate(-101.953125, -18.5)"><rect></rect><foreignObject width="203.90625" height="37"><div xmlns="http://www.w3.org/1999/xhtml" style="display: inline-block; white-space: nowrap;"><span class="nodeLabel">UI Surfaces<br/>summary · quiz · code-assist</span></div></foreignObject></g></g><g class="node default default flowchart-label" id="flowchart-AV-38" data-node="true" data-id="AV" transform="translate(662.296875, 61)"><rect class="basic label-container" style="" rx="0" ry="0" x="-130.94140625" y="-26" width="261.8828125" height="52"></rect><g class="label" style="" transform="translate(-123.44140625, -18.5)"><rect></rect><foreignObject width="246.8828125" height="37"><div xmlns="http://www.w3.org/1999/xhtml" style="display: inline-block; white-space: nowrap;"><span class="nodeLabel">3D Avatar<br/>AnimationMixer + AvatarController</span></div></foreignObject></g></g><g class="node default default flowchart-label" id="flowchart-RTC-39" data-node="true" data-id="RTC" transform="translate(662.296875, 199.125)"><rect class="basic label-container" style="" rx="0" ry="0" x="-131.765625" y="-26" width="263.53125" height="52"></rect><g class="label" style="" transform="translate(-124.265625, -18.5)"><rect></rect><foreignObject width="248.53125" height="37"><div xmlns="http://www.w3.org/1999/xhtml" style="display: inline-block; white-space: nowrap;"><span class="nodeLabel">WebRTC Orchestrator<br/>RTCPeerConnection + DataChannel</span></div></foreignObject></g></g><g class="node default default flowchart-label" id="flowchart-TOOLS-40" data-node="true" data-id="TOOLS" transform="translate(387.21875, 199.125)"><rect class="basic label-container" style="" rx="0" ry="0" x="-93.3125" y="-16.75" width="186.625" height="33.5"></rect><g class="label" style="" transform="translate(-85.8125, -9.25)"><rect></rect><foreignObject width="171.625" height="18.5"><div xmlns="http://www.w3.org/1999/xhtml" style="display: inline-block; white-space: nowrap;"><span class="nodeLabel">Tools Registry + Handler</span></div></foreignObject></g></g></g></g></g></svg>